<svg xmlns="http://www.w3.org/2000/svg" viewBox="0 0 190 60"><g fill="black"><path d="M171,10L179,10Q180,10 180,11L180,49Q180,50 179,50L151,50Q150,50 150,49L150,21Q150,20 151,20L169,20Q170,20 170,19L170,11Q170,10 171,10M160,31L160,39Q160,40 161,40L169,40Q170,40 170,39L170,31Q170,30 169,30L161,30Q160,30 160,31M11,20L49,20Q50,20 50,21L50,49Q50,50 49,50L41,50Q40,50 40,49L40,31Q40,30 39,30L31,30Q30,30 30,31L30,49Q30,50 29,50L21,50Q20,50 20,49L20,31Q20,30 19,30L11,30Q10,30 10,29L10,21Q10,20 11,20M61,20L89,20Q90,20 90,21L90,39Q90,40 91,40L99,40Q100,40 100,41L100,49Q100,50 99,50L61,50Q60,50 60,49L60,21Q60,20 61,20M70,31L70,39Q70,40 71,40L79,40Q80,40 80,39L80,31Q80,30 79,30L71,30Q70,30 70,31M101,20L139,20Q140,20 140,21L140,49Q140,50 139,50L131,50Q130,50 130,49L130,31Q130,30 129,30L121,30Q120,30 120,31L120,49Q120,50 119,50L111,50Q110,50 110,49L110,31Q110,30 109,30L101,30Q100,30 100,29L100,21Q100,20 101,20"></path></g></svg>